<svg width="556.5875px" height="122px" xmlns="http://www.w3.org/2000/svg" viewBox="-28.29374999999999 14 556.5875 122" style="background: rgba(0, 0, 0, 0);" preserveAspectRatio="xMidYMid"><defs><linearGradient id="editing-outline-gradient" x1="-0.41354545764260087" x2="1.4135454576426008" y1="0.09326335692419985" y2="0.9067366430758002"><stop offset="0" stop-color="#ee4208"></stop><stop offset="1" stop-color="#4139ff"></stop></linearGradient><filter id="editing-outline" x="-100%" y="-100%" width="300%" height="300%"><feMorphology in="SourceGraphic" operator="dilate" radius="6" result="outline"></feMorphology><feComposite operator="out" in="outline" in2="SourceAlpha"></feComposite></filter></defs><g filter="url(#editing-outline)"><g transform="translate(53.16998013854027, 99)"><path d="M14.34 0L0.38 0L8.51-42.24L22.59-42.24L14.34 0ZM51.07 1.28L51.07 1.28L51.07 1.28Q43.33 1.28 43.33-4.74L43.33-4.74L43.33-4.74Q43.39-6.40 43.90-9.22L43.90-9.22L45.06-15.10L45.06-15.10Q46.78-23.42 46.78-25.28L46.78-25.28L46.78-25.28Q46.78-28.99 44.61-28.99L44.61-28.99L44.61-28.99Q40.96-28.99 39.04-19.46L39.04-19.46L35.26 0L22.40 1.28L29.06-32.70L39.55-33.92L38.53-27.65L38.53-27.65Q41.54-33.92 50.75-33.92L50.75-33.92L50.75-33.92Q55.23-33.92 57.12-32.03L57.12-32.03L57.12-32.03Q59.01-30.14 59.01-25.92L59.01-25.92L59.01-25.92Q59.01-21.95 56.96-12.67L56.96-12.67L56.96-12.67Q56-8.51 56-6.94L56-6.94L56-6.94Q56-5.38 56.86-4.48L56.86-4.48L56.86-4.48Q57.73-3.58 59.01-3.46L59.01-3.46L59.01-3.46Q58.37-1.28 56.16 0L56.16 0L56.16 0Q53.95 1.28 51.07 1.28ZM89.09-37.12L89.09-37.12L89.09-37.12Q89.98-38.66 89.98-40.32L89.98-40.32L89.98-40.32Q89.98-43.26 88.19-43.26L88.19-43.26L88.19-43.26Q85.44-43.26 84.29-37.63L84.29-37.63L83.33-32.64L89.15-32.64L88.77-29.76L82.75-29.76L76.99 0L64.06 1.28L70.21-29.76L65.66-29.76L66.24-32.64L70.72-32.64L72.06-37.70L72.06-37.70Q73.22-42.37 78.14-44.54L78.14-44.54L78.14-44.54Q81.73-46.08 87.74-46.08L87.74-46.08L87.74-46.08Q93.76-46.08 96.45-44.54L96.45-44.54L96.45-44.54Q99.14-43.01 99.14-40.96L99.14-40.96L99.14-40.96Q99.14-38.91 97.54-37.63L97.54-37.63L97.54-37.63Q95.94-36.35 94.14-36.35L94.14-36.35L94.14-36.35Q90.62-36.35 89.09-37.12ZM109.44-3.52L109.44-3.52L109.44-3.52Q107.46 1.28 101.12 1.28L101.12 1.28L101.12 1.28Q97.86 1.28 95.81-0.96L95.81-0.96L95.81-0.96Q94.08-2.94 94.08-4.93L94.08-4.93L94.08-4.93Q94.08-10.11 96.45-20.22L96.45-20.22L98.82-32.64L111.81-33.92L107.90-13.70L107.90-13.70Q106.82-8.96 106.82-7.30L106.82-7.30L106.82-7.30Q106.82-3.65 109.44-3.52ZM99.97-41.54L99.97-41.54L99.97-41.54Q99.97-44.03 102.05-45.38L102.05-45.38L102.05-45.38Q104.13-46.72 107.14-46.72L107.14-46.72L107.14-46.72Q110.14-46.72 111.97-45.38L111.97-45.38L111.97-45.38Q113.79-44.03 113.79-41.54L113.79-41.54L113.79-41.54Q113.79-39.04 111.78-37.76L111.78-37.76L111.78-37.76Q109.76-36.48 106.75-36.48L106.75-36.48L106.75-36.48Q103.74-36.48 101.86-37.76L101.86-37.76L101.86-37.76Q99.97-39.04 99.97-41.54ZM141.95 1.28L141.95 1.28L141.95 1.28Q134.21 1.28 134.21-4.74L134.21-4.74L134.21-4.74Q134.27-6.40 134.78-9.22L134.78-9.22L135.94-15.10L135.94-15.10Q137.66-23.42 137.66-25.28L137.66-25.28L137.66-25.28Q137.66-28.99 135.49-28.99L135.49-28.99L135.49-28.99Q131.84-28.99 129.92-19.46L129.92-19.46L126.14 0L113.28 1.28L119.94-32.70L130.43-33.92L129.41-27.65L129.41-27.65Q132.42-33.92 141.63-33.92L141.63-33.92L141.63-33.92Q146.11-33.92 148-32.03L148-32.03L148-32.03Q149.89-30.14 149.89-25.92L149.89-25.92L149.89-25.92Q149.89-21.95 147.84-12.67L147.84-12.67L147.84-12.67Q146.88-8.51 146.88-6.94L146.88-6.94L146.88-6.94Q146.88-5.38 147.74-4.48L147.74-4.48L147.74-4.48Q148.61-3.58 149.89-3.46L149.89-3.46L149.89-3.46Q149.25-1.28 147.04 0L147.04 0L147.04 0Q144.83 1.28 141.95 1.28ZM170.37-3.52L170.37-3.52L170.37-3.52Q168.38 1.28 162.05 1.28L162.05 1.28L162.05 1.28Q158.78 1.28 156.74-0.96L156.74-0.96L156.74-0.96Q155.01-2.94 155.01-4.93L155.01-4.93L155.01-4.93Q155.01-10.11 157.38-20.22L157.38-20.22L159.74-32.64L172.74-33.92L168.83-13.70L168.83-13.70Q167.74-8.96 167.74-7.30L167.74-7.30L167.74-7.30Q167.74-3.65 170.37-3.52ZM160.90-41.54L160.90-41.54L160.90-41.54Q160.90-44.03 162.98-45.38L162.98-45.38L162.98-45.38Q165.06-46.72 168.06-46.72L168.06-46.72L168.06-46.72Q171.07-46.72 172.90-45.38L172.90-45.38L172.90-45.38Q174.72-44.03 174.72-41.54L174.72-41.54L174.72-41.54Q174.72-39.04 172.70-37.76L172.70-37.76L172.70-37.76Q170.69-36.48 167.68-36.48L167.68-36.48L167.68-36.48Q164.67-36.48 162.78-37.76L162.78-37.76L162.78-37.76Q160.90-39.04 160.90-41.54ZM176.83-6.40L176.83-6.40L176.83-6.40Q176.83-8.13 177.73-12.48L177.73-12.48L181.12-29.76L177.34-29.76L177.60-31.68L177.60-31.68Q185.28-33.98 192.70-39.62L192.70-39.62L195.78-39.62L194.24-32.64L199.23-32.64L198.66-29.76L193.73-29.76L190.46-12.48L190.46-12.48Q189.63-8.51 189.63-7.17L189.63-7.17L189.63-7.17Q189.63-4.10 192.32-3.46L192.32-3.46L192.32-3.46Q191.68-1.28 189.38 0L189.38 0L189.38 0Q187.07 1.28 183.81 1.28L183.81 1.28L183.81 1.28Q180.54 1.28 178.69-0.77L178.69-0.77L178.69-0.77Q176.83-2.82 176.83-6.40ZM224.58-10.82L224.58-10.82L224.58-10.82Q226.18-9.73 226.18-7.33L226.18-7.33L226.18-7.33Q226.18-4.93 224.96-3.39L224.96-3.39L224.96-3.39Q223.74-1.86 221.76-0.83L221.76-0.83L221.76-0.83Q217.66 1.28 213.25 1.28L213.25 1.28L213.25 1.28Q208.83 1.28 206.24 0.32L206.24 0.32L206.24 0.32Q203.65-0.64 201.92-2.43L201.92-2.43L201.92-2.43Q198.53-5.82 198.53-12.03L198.53-12.03L198.53-12.03Q198.53-21.70 203.78-27.58L203.78-27.58L203.78-27.58Q209.41-33.92 219.20-33.92L219.20-33.92L219.20-33.92Q225.28-33.92 228.29-31.36L228.29-31.36L228.29-31.36Q230.53-29.44 230.53-26.30L230.53-26.30L230.53-26.30Q230.53-15.04 211.07-15.04L211.07-15.04L211.07-15.04Q210.82-13.38 210.82-11.97L210.82-11.97L210.82-11.97Q210.82-9.02 212.13-7.90L212.13-7.90L212.13-7.90Q213.44-6.78 215.87-6.78L215.87-6.78L215.87-6.78Q218.30-6.78 220.90-7.90L220.90-7.90L220.90-7.90Q223.49-9.02 224.58-10.82ZM211.52-17.79L211.52-17.79L211.52-17.79Q216.06-17.79 218.69-20.61L218.69-20.61L218.69-20.61Q221.31-23.30 221.31-27.58L221.31-27.58L221.31-27.58Q221.31-29.06 220.77-29.86L220.77-29.86L220.77-29.86Q220.22-30.66 219.14-30.66L219.14-30.66L219.14-30.66Q218.05-30.66 217.12-30.24L217.12-30.24L217.12-30.24Q216.19-29.82 215.23-28.42L215.23-28.42L215.23-28.42Q212.86-25.22 211.52-17.79ZM259.46-9.86L259.46-9.86L259.46-9.86Q260.67-8.32 260.67-5.34L260.67-5.34L260.67-5.34Q260.67-2.37 258.40-0.54L258.40-0.54L258.40-0.54Q256.13 1.28 252.16 1.28L252.16 1.28L252.16 1.28Q249.86 1.28 246.27 0.77L246.27 0.77L246.27 0.77Q239.23-0.32 237.22-0.32L237.22-0.32L237.22-0.32Q235.20-0.32 234.37-0.22L234.37-0.22L234.37-0.22Q233.54-0.13 232.19 0L232.19 0L239.94-42.24L253.95-42.24L247.55-7.04L247.55-7.04Q248.38-6.91 249.15-6.91L249.15-6.91L250.75-6.91L250.75-6.91Q256.13-6.91 259.46-9.86ZM280.32-3.52L280.32-3.52L280.32-3.52Q278.34 1.28 272 1.28L272 1.28L272 1.28Q268.74 1.28 266.69-0.96L266.69-0.96L266.69-0.96Q264.96-2.94 264.96-4.93L264.96-4.93L264.96-4.93Q264.96-10.11 267.33-20.22L267.33-20.22L269.70-32.64L282.69-33.92L278.78-13.70L278.78-13.70Q277.70-8.96 277.70-7.30L277.70-7.30L277.70-7.30Q277.70-3.65 280.32-3.52ZM270.85-41.54L270.85-41.54L270.85-41.54Q270.85-44.03 272.93-45.38L272.93-45.38L272.93-45.38Q275.01-46.72 278.02-46.72L278.02-46.72L278.02-46.72Q281.02-46.72 282.85-45.38L282.85-45.38L282.85-45.38Q284.67-44.03 284.67-41.54L284.67-41.54L284.67-41.54Q284.67-39.04 282.66-37.76L282.66-37.76L282.66-37.76Q280.64-36.48 277.63-36.48L277.63-36.48L277.63-36.48Q274.62-36.48 272.74-37.76L272.74-37.76L272.74-37.76Q270.85-39.04 270.85-41.54ZM312.83 1.28L312.83 1.28L312.83 1.28Q305.09 1.28 305.09-4.74L305.09-4.74L305.09-4.74Q305.15-6.40 305.66-9.22L305.66-9.22L306.82-15.10L306.82-15.10Q308.54-23.42 308.54-25.28L308.54-25.28L308.54-25.28Q308.54-28.99 306.37-28.99L306.37-28.99L306.37-28.99Q302.72-28.99 300.80-19.46L300.80-19.46L297.02 0L284.16 1.28L290.82-32.70L301.31-33.92L300.29-27.65L300.29-27.65Q303.30-33.92 312.51-33.92L312.51-33.92L312.51-33.92Q316.99-33.92 318.88-32.03L318.88-32.03L318.88-32.03Q320.77-30.14 320.77-25.92L320.77-25.92L320.77-25.92Q320.77-21.95 318.72-12.67L318.72-12.67L318.72-12.67Q317.76-8.51 317.76-6.94L317.76-6.94L317.76-6.94Q317.76-5.38 318.62-4.48L318.62-4.48L318.62-4.48Q319.49-3.58 320.77-3.46L320.77-3.46L320.77-3.46Q320.13-1.28 317.92 0L317.92 0L317.92 0Q315.71 1.28 312.83 1.28ZM342.40-30.34L342.40-30.34L342.40-30.34Q345.86-33.92 353.15-33.92L353.15-33.92L353.15-33.92Q357.18-33.92 359.39-31.78L359.39-31.78L359.39-31.78Q361.60-29.63 361.60-25.70L361.60-25.70L361.60-25.70Q361.60-21.76 359.39-18.98L359.39-18.98L359.39-18.98Q357.18-16.19 353.09-15.04L353.09-15.04L353.09-15.04Q353.41-13.76 353.86-12.42L353.86-12.42L354.75-9.86L354.75-9.86Q355.97-6.59 356.93-5.44L356.93-5.44L356.93-5.44Q357.89-4.29 359.17-3.90L359.17-3.90L359.17-3.90Q358.46-1.28 355.90 0.13L355.90 0.13L355.90 0.13Q353.86 1.28 351.04 1.28L351.04 1.28L351.04 1.28Q342.78 1.28 341.70-11.46L341.70-11.46L341.70-11.46Q341.50-13.25 341.50-15.04L341.50-15.04L341.50-15.04Q344.70-15.94 346.94-18.94L346.94-18.94L346.94-18.94Q349.18-21.95 349.18-25.47L349.18-25.47L349.18-25.47Q349.18-28.99 346.69-28.99L346.69-28.99L346.69-28.99Q344.90-28.99 343.49-27.01L343.49-27.01L343.49-27.01Q342.08-25.02 341.44-21.63L341.44-21.63L337.22 0L324.29 1.28L333.25-44.80L346.11-46.08L344.64-38.46L344.64-38.46Q343.68-33.09 342.40-30.34ZM383.68-22.46L383.68-22.46L383.68-22.46Q384.58-24.83 384.58-26.88L384.58-26.88L384.58-26.88Q384.58-30.66 381.50-30.66L381.50-30.66L381.50-30.66Q379.90-30.66 378.59-29.22L378.59-29.22L378.59-29.22Q377.28-27.78 377.28-25.98L377.28-25.98L377.28-25.98Q377.28-24.70 378.30-23.68L378.30-23.68L378.30-23.68Q379.78-22.27 383.55-19.97L383.55-19.97L383.55-19.97Q387.33-17.66 388.77-15.78L388.77-15.78L388.77-15.78Q390.21-13.89 390.21-11.30L390.21-11.30L390.21-11.30Q390.21-8.70 388.96-6.34L388.96-6.34L388.96-6.34Q387.71-3.97 385.47-2.30L385.47-2.30L385.47-2.30Q380.67 1.28 372.99 1.28L372.99 1.28L372.99 1.28Q368.83 1.28 365.63-0.90L365.63-0.90L365.63-0.90Q362.43-3.01 362.43-5.50L362.43-5.50L362.43-5.50Q362.43-8 364.26-9.47L364.26-9.47L364.26-9.47Q366.08-10.94 368.77-10.94L368.77-10.94L368.77-10.94Q371.46-10.94 373.12-9.92L373.12-9.92L373.12-9.92Q372.29-7.81 372.29-6.40L372.29-6.40L372.29-6.40Q372.29-2.18 375.87-2.18L375.87-2.18L375.87-2.18Q377.41-2.18 378.43-3.14L378.43-3.14L378.43-3.14Q379.46-4.10 379.46-5.76L379.46-5.76L379.46-5.76Q379.46-9.02 373.95-12.48L373.95-12.48L373.95-12.48Q369.47-15.42 368.45-16.58L368.45-16.58L368.45-16.58Q366.72-18.62 366.72-21.18L366.72-21.18L366.72-21.18Q366.72-23.74 367.94-26.18L367.94-26.18L367.94-26.18Q369.15-28.61 371.39-30.34L371.39-30.34L371.39-30.34Q376.06-33.92 384.19-33.92L384.19-33.92L384.19-33.92Q388.35-33.92 390.82-32.26L390.82-32.26L390.82-32.26Q393.28-30.59 393.28-27.78L393.28-27.78L393.28-27.78Q393.28-24.96 391.58-23.36L391.58-23.36L391.58-23.36Q389.89-21.76 386.82-21.76L386.82-21.76L386.82-21.76Q384.70-21.76 383.68-22.46Z" fill="url(#editing-outline-gradient)"></path></g></g><style>text {
  font-size: 64px;
  font-family: Arial Black;
  dominant-baseline: central;
  text-anchor: middle;
}</style></svg>